<?xml version="1.0" encoding="UTF-8" standalone="no"?>
<svg
   viewBox="0 0 156.8 157.9"
   version="1.1"
   id="svg108"
   sodipodi:docname="pager-logo.svg"
   inkscape:version="1.4.3 (0d15f750, 2025-12-25)"
   xmlns:inkscape="http://www.inkscape.org/namespaces/inkscape"
   xmlns:sodipodi="http://sodipodi.sourceforge.net/DTD/sodipodi-0.dtd"
   xmlns:xlink="http://www.w3.org/1999/xlink"
   xmlns="http://www.w3.org/2000/svg"
   xmlns:svg="http://www.w3.org/2000/svg">
  <defs
     id="defs108">
    <linearGradient
       id="linearGradient109"
       x1="107"
       x2="106.7"
       y1="119.8"
       y2="125.5"
       gradientUnits="userSpaceOnUse">
      <stop
         stop-color="#90979D"
         offset="0"
         id="stop68-1" />
      <stop
         stop-color="#393C42"
         offset="1"
         id="stop69-3" />
    </linearGradient>
    <linearGradient
       inkscape:collect="always"
       xlink:href="#SVGID_23_"
       id="linearGradient110"
       gradientUnits="userSpaceOnUse"
       x1="107"
       y1="119.8"
       x2="106.7"
       y2="125.5"
       gradientTransform="translate(0.13757039,-9.4423386)" />
    <linearGradient
       inkscape:collect="always"
       xlink:href="#SVGID_23_"
       id="linearGradient111"
       gradientUnits="userSpaceOnUse"
       gradientTransform="translate(0.13757039,-9.4423386)"
       x1="107"
       y1="119.8"
       x2="106.7"
       y2="125.5" />
    <linearGradient
       inkscape:collect="always"
       xlink:href="#SVGID_23_"
       id="linearGradient112"
       gradientUnits="userSpaceOnUse"
       x1="107"
       y1="119.8"
       x2="106.7"
       y2="125.5" />
    <linearGradient
       inkscape:collect="always"
       xlink:href="#linearGradient109"
       id="linearGradient112-8"
       gradientUnits="userSpaceOnUse"
       x1="107"
       y1="119.8"
       x2="106.7"
       y2="125.5" />
    <linearGradient
       inkscape:collect="always"
       xlink:href="#SVGID_23_"
       id="linearGradient113"
       gradientUnits="userSpaceOnUse"
       gradientTransform="translate(0.13757039,-9.4423386)"
       x1="107"
       y1="119.8"
       x2="106.7"
       y2="125.5" />
    <linearGradient
       inkscape:collect="always"
       xlink:href="#SVGID_23_"
       id="linearGradient114"
       gradientUnits="userSpaceOnUse"
       gradientTransform="translate(0.13757039,-9.4423386)"
       x1="107"
       y1="119.8"
       x2="106.7"
       y2="125.5" />
  </defs>
  <sodipodi:namedview
     id="namedview108"
     pagecolor="#ffffff"
     bordercolor="#666666"
     borderopacity="1.0"
     inkscape:showpageshadow="2"
     inkscape:pageopacity="0.0"
     inkscape:pagecheckerboard="0"
     inkscape:deskcolor="#d1d1d1"
     inkscape:zoom="3.465271"
     inkscape:cx="65.362853"
     inkscape:cy="78.493139"
     inkscape:window-width="1792"
     inkscape:window-height="1067"
     inkscape:window-x="0"
     inkscape:window-y="25"
     inkscape:window-maximized="0"
     inkscape:current-layer="g116" />
  <!-- SVG created with Arrow, by QuiverAI (https://quiver.ai) -->
  <style
     type="text/css"
     id="style1">.cls-0 {fill:url(#SVGID_1_);}
.cls-1 {fill:#0A0B0F;}
.cls-2 {fill:none;stroke:#4D5359;stroke-width:0.7007;stroke-miterlimit:10;}
.cls-3 {opacity:0.81;fill:url(#SVGID_2_);enable-background:new    ;}
.cls-4 {fill:url(#SVGID_3_);}
.cls-5 {fill:#0E1216;}
.cls-6 {fill:#25292E;}
.cls-7 {fill:#14171C;}
.cls-8 {fill:url(#SVGID_4_);}
.cls-9 {fill:#757C82;}
.cls-10 {fill:#070B0F;}
.cls-11 {fill:url(#SVGID_5_);}
.cls-12 {fill:#171C21;}
.cls-13 {fill:url(#SVGID_6_);}
.cls-14 {fill:url(#SVGID_7_);}
.cls-15 {fill:url(#SVGID_8_);}
.cls-16 {fill:#5FFF6C;}
.cls-17 {fill:none;stroke:#070B0F;stroke-width:0.7378;stroke-linejoin:round;stroke-miterlimit:10;}
.cls-18 {fill:#5FFA6A;}
.cls-19 {fill:url(#SVGID_9_);}
.cls-20 {fill:#43DD5A;}
.cls-21 {fill:none;stroke:#070B0F;stroke-width:1.0029;stroke-miterlimit:10;}
.cls-22 {fill:url(#SVGID_10_);}
.cls-23 {fill:url(#SVGID_11_);}
.cls-24 {fill:#6A7177;}
.cls-25 {fill:#ADB3BB;}</style>
  <linearGradient
     id="SVGID_1_"
     x1="78.36"
     x2="78.36"
     y1="-.6069"
     y2="158"
     gradientUnits="userSpaceOnUse">
    <stop
       stop-color="#353B40"
       offset="0"
       id="stop1" />
    <stop
       stop-color="#0A0B0F"
       offset="1"
       id="stop2" />
  </linearGradient>
  <linearGradient
     id="SVGID_2_"
     x1="40.05"
     x2="58.16"
     y1="-110"
     y2="-26.26"
     gradientTransform="translate(0 114)"
     gradientUnits="userSpaceOnUse">
    <stop
       stop-color="#fff"
       stop-opacity=".5"
       offset="0"
       id="stop4" />
    <stop
       stop-color="#fff"
       stop-opacity="0"
       offset="1"
       id="stop5" />
  </linearGradient>
  <linearGradient
     id="SVGID_3_"
     x1="78.3"
     x2="78.3"
     y1="22.01"
     y2="139"
     gradientUnits="userSpaceOnUse"
     gradientTransform="translate(0,-1.5651544)">
    <stop
       stop-color="#BDC3CA"
       offset="0"
       id="stop6" />
    <stop
       stop-color="#676E74"
       offset=".4888"
       id="stop7" />
    <stop
       stop-color="#4E565E"
       offset="1"
       id="stop8" />
  </linearGradient>
  <linearGradient
     id="SVGID_4_"
     x1="131.5"
     x2="131.5"
     y1="49.71"
     y2="69.42"
     gradientUnits="userSpaceOnUse"
     gradientTransform="translate(0,-1.5651544)">
    <stop
       stop-color="#CAD1DA"
       offset="0"
       id="stop9" />
    <stop
       stop-color="#7B838A"
       offset=".141"
       id="stop10" />
    <stop
       stop-color="#4E565E"
       offset=".8364"
       id="stop11" />
    <stop
       stop-color="#909AA2"
       offset="1"
       id="stop12" />
  </linearGradient>
  <linearGradient
     id="SVGID_5_"
     x1="129.7"
     x2="130.8"
     y1="60.11"
     y2="60.11"
     gradientUnits="userSpaceOnUse">
    <stop
       stop-color="#676E74"
       offset="0"
       id="stop13" />
    <stop
       stop-color="#4E565E"
       offset="1"
       id="stop14" />
  </linearGradient>
  <linearGradient
     id="SVGID_6_"
     x1="24.86"
     x2="24.86"
     y1="51.45"
     y2="69.31"
     gradientUnits="userSpaceOnUse"
     gradientTransform="translate(0,-1.5651544)">
    <stop
       stop-color="#CAD1DA"
       offset="0"
       id="stop15" />
    <stop
       stop-color="#7B838A"
       offset=".1818"
       id="stop16" />
    <stop
       stop-color="#4E565E"
       offset=".8848"
       id="stop17" />
  </linearGradient>
  <linearGradient
     id="SVGID_7_"
     x1="24.57"
     x2="24.66"
     y1="95.41"
     y2="112.8"
     gradientUnits="userSpaceOnUse"
     gradientTransform="translate(0,-1.5651544)">
    <stop
       stop-color="#CAD1DA"
       offset="0"
       id="stop18" />
    <stop
       stop-color="#7B838A"
       offset=".1818"
       id="stop19" />
    <stop
       stop-color="#4E565E"
       offset=".8848"
       id="stop20" />
  </linearGradient>
  <linearGradient
     id="SVGID_8_"
     x1="78.15"
     x2="78.15"
     y1="25.17"
     y2="134.6"
     gradientUnits="userSpaceOnUse"
     gradientTransform="translate(0,-1.5651544)">
    <stop
       stop-color="#fff"
       offset="0"
       id="stop21"
       style="stop-color:#e7e7e7;stop-opacity:1;" />
    <stop
       stop-color="#EDEFF2"
       offset="1"
       id="stop22" />
  </linearGradient>
  <linearGradient
     id="SVGID_9_"
     x1="78.05"
     x2="78.05"
     y1="133.4"
     y2="81.24"
     gradientUnits="userSpaceOnUse"
     gradientTransform="translate(0,-1.5651544)">
    <stop
       stop-color="#171A1F"
       offset="0"
       id="stop24" />
    <stop
       stop-color="#1E2127"
       offset="1"
       id="stop25" />
  </linearGradient>
  <radialGradient
     id="SVGID_10_"
     cx="78.35"
     cy="61.57"
     r="22.62"
     gradientUnits="userSpaceOnUse"
     gradientTransform="translate(0,-1.5651544)">
    <stop
       stop-color="#5FFE6C"
       offset=".4303"
       id="stop26" />
    <stop
       stop-color="#3FD253"
       offset="1"
       id="stop27" />
  </radialGradient>
  <linearGradient
     id="SVGID_11_"
     x1="101.4"
     x2="101.4"
     y1="34.02"
     y2="44.81"
     gradientUnits="userSpaceOnUse"
     gradientTransform="translate(0,-1.5651544)">
    <stop
       stop-color="#1C2024"
       offset="0"
       id="stop28" />
    <stop
       stop-color="#171A1F"
       offset="1"
       id="stop29" />
  </linearGradient>
  <linearGradient
     id="SVGID_12_"
     x1="131.7"
     x2="131.7"
     y1="79.65"
     y2="96.89"
     gradientUnits="userSpaceOnUse"
     gradientTransform="translate(0,-1.5651544)">
    <stop
       stop-color="#CAD1DA"
       offset="0"
       id="stop32" />
    <stop
       stop-color="#7B838A"
       offset=".1818"
       id="stop33" />
    <stop
       stop-color="#4E565E"
       offset=".8848"
       id="stop34" />
  </linearGradient>
  <linearGradient
     id="SVGID_13_"
     x1="48.79"
     x2="48.49"
     y1="88.13"
     y2="94.42"
     gradientUnits="userSpaceOnUse"
     gradientTransform="translate(0,-1.5651544)">
    <stop
       stop-color="#90979D"
       offset="0"
       id="stop38" />
    <stop
       stop-color="#535A62"
       offset="1"
       id="stop39" />
  </linearGradient>
  <linearGradient
     id="SVGID_14_"
     x1="64.37"
     x2="64.08"
     y1="88.23"
     y2="94.52"
     gradientUnits="userSpaceOnUse"
     gradientTransform="translate(0,-1.5651544)">
    <stop
       stop-color="#90979D"
       offset="0"
       id="stop41" />
    <stop
       stop-color="#535A62"
       offset="1"
       id="stop42" />
  </linearGradient>
  <linearGradient
     id="SVGID_15_"
     x1="78.42"
     x2="78.12"
     y1="88.3"
     y2="94.59"
     gradientUnits="userSpaceOnUse"
     gradientTransform="translate(0,-1.5651544)">
    <stop
       stop-color="#90979D"
       offset="0"
       id="stop44" />
    <stop
       stop-color="#535A62"
       offset="1"
       id="stop45" />
  </linearGradient>
  <linearGradient
     id="SVGID_16_"
     x1="92.75"
     x2="92.45"
     y1="88.25"
     y2="94.54"
     gradientUnits="userSpaceOnUse"
     gradientTransform="translate(0,-1.5651544)">
    <stop
       stop-color="#90979D"
       offset="0"
       id="stop47" />
    <stop
       stop-color="#535A62"
       offset="1"
       id="stop48" />
  </linearGradient>
  <linearGradient
     id="SVGID_17_"
     x1="107.6"
     x2="107.3"
     y1="88.12"
     y2="94.41"
     gradientUnits="userSpaceOnUse"
     gradientTransform="translate(0,-1.5651544)">
    <stop
       stop-color="#90979D"
       offset="0"
       id="stop50" />
    <stop
       stop-color="#535A62"
       offset="1"
       id="stop51" />
  </linearGradient>
  <linearGradient
     id="SVGID_18_"
     x1="49.24"
     x2="48.94"
     y1="98.86"
     y2="103.6"
     gradientUnits="userSpaceOnUse">
    <stop
       stop-color="#90979D"
       offset="0"
       id="stop53" />
    <stop
       stop-color="#535A62"
       offset="1"
       id="stop54" />
  </linearGradient>
  <linearGradient
     id="SVGID_19_"
     x1="49.36"
     x2="49.06"
     y1="109.3"
     y2="115.5"
     gradientUnits="userSpaceOnUse">
    <stop
       stop-color="#90979D"
       offset="0"
       id="stop56" />
    <stop
       stop-color="#393C42"
       offset="1"
       id="stop57" />
  </linearGradient>
  <linearGradient
     id="SVGID_20_"
     x1="49.36"
     x2="49.06"
     y1="119.8"
     y2="126.1"
     gradientUnits="userSpaceOnUse">
    <stop
       stop-color="#90979D"
       offset="0"
       id="stop59" />
    <stop
       stop-color="#393C42"
       offset="1"
       id="stop60" />
  </linearGradient>
  <linearGradient
     id="SVGID_21_"
     x1="107"
     x2="106.7"
     y1="98.93"
     y2="105.2"
     gradientUnits="userSpaceOnUse">
    <stop
       stop-color="#90979D"
       offset="0"
       id="stop62" />
    <stop
       stop-color="#535A62"
       offset="1"
       id="stop63" />
  </linearGradient>
  <linearGradient
     id="SVGID_22_"
     x1="107"
     x2="106.7"
     y1="109.3"
     y2="116.3"
     gradientUnits="userSpaceOnUse">
    <stop
       stop-color="#90979D"
       offset="0"
       id="stop65" />
    <stop
       stop-color="#393C42"
       offset="1"
       id="stop66" />
  </linearGradient>
  <linearGradient
     id="SVGID_23_"
     x1="107"
     x2="106.7"
     y1="119.8"
     y2="125.5"
     gradientUnits="userSpaceOnUse">
    <stop
       stop-color="#90979D"
       offset="0"
       id="stop68" />
    <stop
       stop-color="#393C42"
       offset="1"
       id="stop69" />
  </linearGradient>
  <linearGradient
     id="SVGID_24_"
     x1="64.7"
     x2="92.4"
     y1="113.6"
     y2="113.6"
     gradientUnits="userSpaceOnUse"
     gradientTransform="translate(0,-1.5651544)">
    <stop
       stop-color="#757C82"
       offset="0"
       id="stop70" />
    <stop
       stop-color="#CBD1D7"
       offset=".5091"
       id="stop71" />
    <stop
       stop-color="#4E565E"
       offset="1"
       id="stop72" />
  </linearGradient>
  <linearGradient
     id="SVGID_25_"
     x1="64.93"
     x2="91.67"
     y1="111.6"
     y2="111.6"
     gradientUnits="userSpaceOnUse"
     gradientTransform="translate(0,-1.5651544)">
    <stop
       stop-color="#757C82"
       offset="0"
       id="stop73" />
    <stop
       stop-color="#CBD1D7"
       offset=".4667"
       id="stop74" />
    <stop
       stop-color="#757D83"
       offset="1"
       id="stop75" />
  </linearGradient>
  <linearGradient
     id="SVGID_26_"
     x1="70.19"
     x2="86.21"
     y1="114.1"
     y2="114.1"
     gradientUnits="userSpaceOnUse"
     gradientTransform="translate(0,-1.5651544)">
    <stop
       stop-color="#666D74"
       offset="0"
       id="stop76" />
    <stop
       stop-color="#FBFBFC"
       offset=".497"
       id="stop77" />
    <stop
       stop-color="#838B92"
       offset="1"
       id="stop78" />
  </linearGradient>
  <linearGradient
     id="SVGID_27_"
     x1="40.69"
     x2="45.12"
     y1="62.89"
     y2="68.68"
     gradientUnits="userSpaceOnUse"
     gradientTransform="translate(0,-1.5651544)">
    <stop
       stop-color="#171C21"
       stop-opacity=".7"
       offset="0"
       id="stop79" />
    <stop
       stop-color="#5A646E"
       stop-opacity=".4"
       offset="1"
       id="stop80" />
  </linearGradient>
  <linearGradient
     id="SVGID_28_"
     x1="-73.86"
     x2="-70.21"
     y1="63.4"
     y2="68.21"
     gradientTransform="matrix(-1,0,0,1,87.46,-1.5651544)"
     gradientUnits="userSpaceOnUse">
    <stop
       stop-color="#171C21"
       stop-opacity=".7"
       offset="0"
       id="stop81" />
    <stop
       stop-color="#5A646E"
       stop-opacity=".4"
       offset="1"
       id="stop82" />
  </linearGradient>
  <linearGradient
     id="SVGID_29_"
     x1="77.91"
     x2="77.73"
     y1="55.01"
     y2="51.04"
     gradientUnits="userSpaceOnUse"
     gradientTransform="translate(0,-1.5651544)">
    <stop
       stop-color="#1A1E24"
       stop-opacity=".6"
       offset="0"
       id="stop83" />
    <stop
       stop-color="#070B0F"
       offset="1"
       id="stop84" />
  </linearGradient>
  <linearGradient
     id="SVGID_30_"
     x1="40.82"
     x2="43.86"
     y1="54.98"
     y2="51.38"
     gradientUnits="userSpaceOnUse"
     gradientTransform="translate(0,-1.5651544)">
    <stop
       stop-color="#5A646E"
       stop-opacity=".4"
       offset="0"
       id="stop85" />
    <stop
       stop-color="#171C21"
       stop-opacity=".7"
       offset="1"
       id="stop86" />
  </linearGradient>
  <linearGradient
     id="SVGID_31_"
     x1="115"
     x2="112.9"
     y1="55.18"
     y2="51.48"
     gradientUnits="userSpaceOnUse"
     gradientTransform="translate(0,-1.5651544)">
    <stop
       stop-color="#5A646E"
       stop-opacity=".4"
       offset="0"
       id="stop87" />
    <stop
       stop-color="#171C21"
       stop-opacity=".7"
       offset="1"
       id="stop88" />
  </linearGradient>
  <g
     id="g116"
     transform="matrix(1.2778292,0,0,1.2778292,-21.726246,-22.365254)">
    <path
       class="cls-4"
       d="M 116.4,20.434846 H 40.2 c -7.2,0 -14.1,5.9 -14.1,14.1 v 89.200004 c 0,7.2 5.9,13.7 13.8,13.7 h 76.5 c 7.3,0 13.7,-5.1 13.7,-13.7 V 34.834846 c 0,-7.6 -6.1,-14.4 -13.7,-14.4 z"
       id="path8"
       style="fill:url(#SVGID_3_)" />
    <path
       class="cls-5"
       d="m 130.1,47.234846 1.6,0.6 c 0.9,0.4 1.6,1.3 1.6,2.8 v 14.4 c 0,1.8 -0.6,2.8 -3.2,3.5 z"
       id="path9" />
    <path
       class="cls-8"
       d="m 130.8,49.034846 -0.1,18.4 0.8,-0.3 c 0.7,-0.2 1.1,-0.8 1.1,-1.7 v -14.3 c 0,-1.4 -0.8,-1.8 -1.8,-2.1 z"
       id="path12"
       style="fill:url(#SVGID_4_)" />
    <polygon
       class="cls-9"
       points="128.5,47.9 128.5,71.5 130.1,70.5 130.1,48.8 "
       id="polygon12"
       transform="translate(0,-1.5651544)" />
    <polygon
       class="cls-11"
       points="128.5,48 128.5,71.5 129.7,70.6 129.7,48.6 "
       id="polygon14"
       style="fill:url(#SVGID_5_)"
       transform="translate(0,-1.5651544)" />
    <path
       class="cls-5"
       d="m 26.2,48.234846 -1.4,0.6 c -0.9,0.4 -1.8,1.3 -1.8,2.7 v 13.9 c 0,1.3 0.5,2.7 3.2,3.3 z"
       id="path14" />
    <path
       class="cls-13"
       d="m 25.5,49.934846 v 17.5 c -0.7,-0.2 -1.5,-0.9 -1.5,-2 v -13.5 c 0,-1.2 0.7,-1.9 1.5,-2 z"
       id="path17"
       style="fill:url(#SVGID_6_)" />
    <path
       class="cls-5"
       d="m 26.1,92.434846 c -2,0.4 -3.1,1.3 -3.1,3.1 v 13.500004 c 0,1.9 1.5,3.1 3.2,3.4 z"
       id="path18" />
    <path
       class="cls-14"
       d="m 25.4,93.834846 v 17.500004 c -0.8,-0.1 -1.5,-0.9 -1.5,-1.9 V 95.334846 c 0,-0.6 0.6,-1.4 1.5,-1.5 z"
       id="path20"
       style="fill:url(#SVGID_7_)" />
    <path
       class="cls-15"
       d="M 116.1,23.634846 H 39.8 c -5.8,0 -11.5,4.4 -11.5,11.8 v 86.900004 c 0,7.1 5.2,11.7 11.6,11.7 h 76.4 c 6,0 11.3,-4 11.3,-11.5 V 35.434846 c 0,-6.1 -4.7,-11.8 -11.5,-11.8 z"
       id="path22"
       style="fill:url(#SVGID_8_)" />
    <path
       class="cls-6"
       d="m 122.9,123.93485 c 0,3.8 -2.9,8.4 -8.2,8.4 H 41.5 c -5.3,0 -8.1,-3.9 -8.1,-8.3 V 35.134846 c 0,-4.8 3.8,-8.7 8.6,-8.7 h 72.6 c 4.6,0 8.3,3.3 8.3,8.7 z"
       id="path23" />
    <path
       class="cls-7"
       d="m 121.6,123.63485 c 0,3.7 -3.4,6.9 -6.9,6.9 H 41.9 c -3.3,0 -7.3,-2.5 -7.3,-6.9 V 35.334846 c 0,-4 3.7,-6.8 7.3,-6.8 h 72.3 c 3.3,0 7.3,2.5 7.3,6.8 z"
       id="path24" />
    <path
       class="cls-19"
       d="m 34.7,79.634846 v 43.800004 c 0,3.9 3.1,7.4 7.2,7.4 h 72.7 c 4,0 7,-2.9 6.8,-7.4 V 79.634846 Z"
       id="path25"
       style="fill:url(#SVGID_9_)" />
    <path
       class="cls-10"
       d="M 113.4,73.534846 H 43.6 c -1.7,0 -3.3,-1.2 -3.3,-3.1 v -20.5 c 0,-1.6 1.2,-3.5 3.3,-3.5 H 113 c 2.3,0 3.4,1.6 3.4,3.5 v 20.4 c 0,1.9 -1.3,3.2 -3,3.2 z"
       id="path26" />
    <path
       class="cls-22"
       d="M 111.2,70.434846 H 45.5 c -0.8,0 -1.8,-0.7 -1.8,-1.8 v -16.5 c 0,-0.8 0.7,-2.3 2.3,-2.2 h 65.2 c 1.2,0 1.7,1.4 1.7,2 v 16.7 c 0.2,1.2 -0.6,1.8 -1.7,1.8 z"
       id="path27"
       style="fill:url(#SVGID_10_)" />
    <path
       class="cls-10"
       d="M 113.7,43.434846 H 89 c -1.2,0 -2.4,-0.8 -2.4,-2 v -7 c 0,-1 0.9,-2.1 2.2,-2.1 h 24.9 c 1.3,0 2.4,0.7 2.4,2.1 v 6.9 c 0,1.2 -1,2.1 -2.4,2.1 z"
       id="path28" />
    <path
       class="cls-23"
       d="M 113.6,42.434846 H 89 c -0.8,0 -1.6,-0.5 -1.6,-1.4 v -6.2 c 0,-0.8 0.6,-1.4 1.4,-1.4 h 24.8 c 0.9,0 1.7,0.6 1.7,1.4 v 6.3 c 0,0.8 -0.7,1.3 -1.7,1.3 z"
       id="path29"
       style="fill:url(#SVGID_11_)" />
    <path
       class="cls-24"
       d="M 113.6,43.434846 H 89 c -1.1,0 -2.4,-0.8 -2.4,-2.3 v 0.3 c 0,1.4 0.9,2.1 2.1,2.1 h 25.1 c 1.1,0 2.3,-0.7 2.3,-2.4 v -0.5 c 0,1.6 -1,2.8 -2.5,2.8 z"
       id="path30" />
    <path
       class="cls-25"
       d="m 130.8,49.334846 v 0.6 c 0.5,0.2 1.1,0.4 1.1,1.4 0,-0.7 0,-1.6 -1.1,-2 z"
       id="path31" />
    <path
       class="cls-5"
       d="m 130.1,76.934846 c 2.2,0.4 3.3,1.1 3.3,2.9 v 13.6 c 0,1.5 -0.6,2.8 -3.3,2.9 z"
       id="path32" />
    <path
       d="m 130.8,78.134846 v 17.2 l 0.4,-0.1 c 0.8,-0.2 1.3,-0.9 1.3,-1.8 v -13.6 c 0,-0.7 -0.6,-1.5 -1.7,-1.7 z"
       fill="url(#SVGID_12_)"
       id="path34"
       style="fill:url(#SVGID_12_)" />
    <path
       class="cls-25"
       d="m 130.8,78.434846 v 0.5 c 0.7,0.3 1.1,0.8 1.1,1.5 v -0.7 c 0,-0.8 -0.5,-1.1 -1.1,-1.3 z"
       id="path35" />
    <path
       class="cls-10"
       d="M 130.3,77.134846"
       id="path36" />
    <path
       class="cls-21"
       d="M 114.3,131.83485 H 41.8 c -4.3,0 -8.2,-3.3 -8.2,-8.1 V 35.134846 c 0,-4.3 3.9,-8.2 8.4,-8.2 h 72.6 c 3.9,0 7.8,3.2 7.8,8.2 v 88.800004 c 0,4 -3.2,7.9 -8.1,7.9 z"
       id="path37" />
    <line
       class="cls-17"
       x1="34.599998"
       x2="121.9"
       y1="79.134842"
       y2="79.134842"
       id="line37" />
    <path
       class="cls-10"
       d="m 53.1,93.934846 h -8.3 c -1.2,0 -2.3,-1 -2.3,-2.2 v -1.3 c 0,-1.2 1,-2.3 2.3,-2.3 H 53 c 1.2,0 2.3,1 2.3,2.2 v 1.3 c 0.1,1.3 -0.9,2.3 -2.2,2.3 z"
       id="path38" />
    <path
       d="m 52.8,91.934846 h -7.9 c -0.9,0 -1.8,-0.6 -1.8,-1.6 v -1.1 c 0,-0.9 0.9,-1.7 1.8,-1.7 H 53 c 0.9,0 1.7,0.7 1.7,1.7 v 1.2 c -0.1,1 -0.9,1.5 -1.9,1.5 z"
       fill="url(#SVGID_13_)"
       id="path39"
       style="fill:url(#SVGID_13_)" />
    <path
       class="cls-9"
       d="m 43.7,90.034846 v -0.7 c 0,-0.6 0.7,-1.2 1.4,-1.2 h 7.6 c 0.7,0 1.5,0.4 1.5,1.2 v 0.6 c 0,-1.6 -0.7,-1.6 -1.5,-1.6 h -7.6 c -0.6,0 -1.4,0.5 -1.4,1.7 z"
       id="path40" />
    <path
       class="cls-10"
       d="m 67.3,93.934846 h -6.4 c -1.2,0 -2.3,-1 -2.3,-2.2 v -1.3 c 0,-1.2 1,-2.3 2.2,-2.3 h 6.7 c 1.2,0 2.3,1 2.3,2.2 v 1.3 c 0,1.3 -1.2,2.3 -2.5,2.3 z"
       id="path41" />
    <path
       d="m 67,91.934846 h -6 c -0.9,0 -1.8,-0.6 -1.8,-1.6 v -1.1 c 0,-0.9 0.8,-1.7 1.7,-1.7 h 6.4 c 0.9,0 1.8,0.7 1.8,1.7 v 1.2 c -0.1,1 -0.9,1.5 -2.1,1.5 z"
       fill="url(#SVGID_14_)"
       id="path42"
       style="fill:url(#SVGID_14_)" />
    <path
       class="cls-9"
       d="m 59.7,90.034846 v -0.6 c 0,-0.8 0.7,-1.2 1.4,-1.2 h 5.7 c 0.7,0 1.7,0.1 1.7,1.2 v 0.8 c 0,-1.8 -0.7,-1.9 -1.6,-1.9 h -5.7 c -0.8,0 -1.4,0.5 -1.5,1.7 z"
       id="path43" />
    <path
       class="cls-10"
       d="m 81.4,93.934846 h -6.3 c -1.2,0 -2.3,-1 -2.3,-2.2 v -1.3 c 0,-1.2 1,-2.3 2.2,-2.3 h 6.4 c 1.2,0 2.3,1 2.3,2.2 v 1.3 c 0.1,1.3 -1,2.3 -2.3,2.3 z"
       id="path44" />
    <path
       d="m 81.2,91.934846 h -5.9 c -0.9,0 -1.8,-0.6 -1.8,-1.6 v -1.1 c 0,-0.9 0.8,-1.7 1.7,-1.7 h 6.3 c 0.9,0 1.4,0.8 1.4,1.7 v 1.2 c 0,0 -0.5,1.5 -1.7,1.5 z"
       fill="url(#SVGID_15_)"
       id="path45"
       style="fill:url(#SVGID_15_)" />
    <path
       class="cls-9"
       d="m 73.9,90.034846 v -0.7 c 0,-0.6 0.6,-1.2 1.4,-1.2 H 81 c 0.9,0 1.7,0.3 1.6,1.2 l -0.1,0.7 c 0.1,-1.5 -0.5,-1.7 -1.4,-1.7 h -5.6 c -0.6,0 -1.7,0.5 -1.6,1.7 z"
       id="path46" />
    <path
       class="cls-10"
       d="m 95.9,93.934846 h -6.6 c -1.2,0 -2.3,-1 -2.3,-2.2 v -1.3 c 0,-1.2 1,-2.3 2.2,-2.3 h 6.7 c 1.2,0 2.3,1 2.3,2.2 v 1.3 c 0,1.3 -1,2.3 -2.3,2.3 z"
       id="path47" />
    <path
       d="m 96,91.934846 h -6.6 c -0.9,0 -1.8,-0.6 -1.8,-1.6 v -1.1 c 0,-0.9 0.7,-1.7 1.6,-1.7 H 96 c 0.9,0 1.7,0.7 1.7,1.7 v 1.2 c -0.1,1 -0.5,1.5 -1.7,1.5 z"
       fill="url(#SVGID_16_)"
       id="path48"
       style="fill:url(#SVGID_16_)" />
    <path
       class="cls-9"
       d="m 88.2,90.034846 v -0.6 c 0,-0.8 0.5,-1.3 1.3,-1.3 h 6.2 c 0.9,0 1.4,0.4 1.4,1.2 l -0.1,0.7 c 0.1,-1.5 -0.6,-1.7 -1.3,-1.7 h -6.1 c -0.6,0 -1.5,0.5 -1.4,1.7 z"
       id="path49" />
    <path
       class="cls-10"
       d="m 111.8,93.934846 h -7.9 c -1.2,0 -2.3,-1 -2.3,-2.2 v -1.3 c 0,-1.2 1,-2.3 2.2,-2.3 h 7.9 c 1.2,0 2.4,1 2.4,2.2 v 1.3 c 0,1.3 -1.1,2.3 -2.3,2.3 z"
       id="path50" />
    <path
       d="m 111.5,91.934846 h -7.6 c -0.9,0 -1.9,-0.6 -1.9,-1.6 v -1.1 c 0,-0.9 0.8,-1.7 1.7,-1.7 h 7.9 c 0.9,0 1.8,0.7 1.8,1.7 v 1.2 c 0,0 -0.6,1.5 -1.9,1.5 z"
       fill="url(#SVGID_17_)"
       id="path51"
       style="fill:url(#SVGID_17_)" />
    <path
       class="cls-9"
       d="m 102.6,90.034846 -0.1,-0.7 c 0,-0.6 0.8,-1.2 1.5,-1.2 h 7.4 c 0.9,0 1.6,0.2 1.6,1.2 v 0.7 c 0,-1.2 -0.6,-1.7 -1.5,-1.7 H 104 c -0.6,0 -1.4,0.5 -1.4,1.7 z"
       id="path52" />
    <circle
       class="cls-10"
       cx="78.300003"
       cy="112.53484"
       r="14.9"
       id="circle70" />
    <circle
       cx="78.300003"
       cy="112.03484"
       r="13.7"
       fill="url(#SVGID_24_)"
       id="circle72"
       style="fill:url(#SVGID_24_)" />
    <path
       d="m 78.3,98.034846 c -6.7,0 -13.4,5.400004 -13.4,12.900004 l 0.6,0.1 c 0,-5.7 5.9,-12.200004 12.8,-12.500004 7,-0.2 12.6,5.300004 12.7,11.500004 h 0.7 c -0.2,-6.5 -6.6,-12.000004 -13.4,-12.000004 z"
       fill="url(#SVGID_25_)"
       id="path75"
       style="fill:url(#SVGID_25_)" />
    <ellipse
       class="cls-10"
       cx="78.300003"
       cy="112.13484"
       rx="7.9000001"
       ry="8.1999998"
       id="ellipse75" />
    <path
       d="m 78.3,119.53485 c -4,0 -7.5,-3 -7.5,-7.1 -0.3,-4.1 3.5,-8.7 7.6,-8.4 4.1,-0.1 7.8,3.3 7.8,7.3 0.2,4 -3.3,8.4 -7.9,8.2 z m 0,-14.5 c -3.3,-0.1 -6.9,2.5 -7,6.6 -0.3,3.6 3.2,7 7,6.9 4.2,-0.3 6.6,-2.9 6.7,-6.7 0.3,-3.5 -2.9,-6.8 -6.7,-6.8 z"
       id="path76" />
    <path
       d="m 78.4,120.53485 c -4.2,0.1 -8,-2.8 -8.2,-7.1 l 0.3,-0.5 c 0,3.6 3.4,7.1 7.9,7.2 3.6,-0.1 7.6,-2.4 7.8,-7.3 v 0.1 c 0,4.2 -3.6,7.6 -7.8,7.6 z"
       fill="url(#SVGID_26_)"
       id="path78"
       style="fill:url(#SVGID_26_)" />
    <g
       id="g115"
       transform="translate(-0.23021646,-1.0725563)">
      <g
         id="g111"
         transform="translate(-0.5733748,-0.6421648)">
        <path
           class="cls-10"
           d="m 112.06367,126.72543 h -9.7446 c -1.25737,0 -2.409955,-0.96616 -2.409955,-2.48087 v -2.05568 c 0.209565,-1.29832 1.362145,-2.59665 2.829075,-2.59665 h 8.90636 c 1.57171,0 2.82907,1.19013 2.82907,2.70484 v 1.94749 c 0.10478,1.40652 -0.83824,2.48087 -2.40995,2.48087 z"
           id="path68"
           sodipodi:nodetypes="ssscssscs"
           style="stroke-width:1.06473" />
        <path
           d="m 111.5,125.5 h -8.9 c -1.8342,0.0289 -2.24737,-0.74562 -2.2,-3 -0.0474,-1.80175 0.3403,-2.60479 2.1,-2.6 l 9.33595,0.0254 c 2.15964,0.002 2.28949,0.69825 2.26405,2.57456 -0.0272,2.06139 -0.2,3 -2.6,3 z"
           fill="url(#SVGID_23_)"
           id="path69"
           sodipodi:nodetypes="sccsccss"
           style="fill:url(#linearGradient112)" />
        <path
           class="cls-9"
           d="m 101.34413,123.17532 v -1.2 c 0,-0.7 0.7,-1.3 1.5,-1.3 h 8.4 c 1.2,0 1.8,0.3 1.8,1.3 v 1.2 c 0,-1.2 -0.2,-2.2 -1.7,-2.2 h -8.5 c -0.9,0 -1.6,0.9 -1.5,2.2 z"
           id="path64"
           style="fill:#4d5256;fill-opacity:1" />
      </g>
      <g
         id="g110"
         transform="translate(-0.7109523,-1.0919144)">
        <path
           class="cls-10"
           d="m 112.20125,117.28309 h -9.74461 c -1.25736,0 -2.40995,-0.96616 -2.40995,-2.48087 v -2.05568 c 0.20956,-1.29832 1.36214,-2.59665 2.82908,-2.59665 h 8.90636 c 1.57171,0 2.82907,1.19013 2.82907,2.70484 v 1.94749 c 0.10478,1.40652 -0.83824,2.48087 -2.40995,2.48087 z"
           id="path68-8"
           sodipodi:nodetypes="ssscssscs"
           style="fill:#070b0f;stroke-width:1.06473" />
        <path
           d="m 111.63758,116.05766 h -8.90001 c -1.83419,0.0289 -2.24737,-0.74562 -2.2,-3 -0.0474,-1.80175 0.3403,-2.60479 2.1,-2.6 l 9.33595,0.0254 c 2.15964,0.002 2.28949,0.69825 2.26405,2.57456 -0.0272,2.06139 -0.2,3 -2.6,3 z"
           fill="url(#SVGID_23_)"
           id="path69-8"
           sodipodi:nodetypes="sccsccss"
           style="fill:url(#linearGradient110)" />
        <path
           class="cls-9"
           d="m 101.48171,113.73298 v -1.2 c 0,-0.7 0.7,-1.3 1.5,-1.3 h 8.4 c 1.2,0 1.8,0.3 1.8,1.3 v 1.2 c 0,-1.2 -0.2,-2.2 -1.7,-2.2 h -8.5 c -0.9,0 -1.6,0.9 -1.5,2.2 z"
           id="path64-3"
           style="fill:#4d5256;fill-opacity:1" />
      </g>
      <g
         id="g110-3"
         transform="translate(-0.71095355,-10.984004)">
        <path
           class="cls-10"
           d="m 112.20125,117.28309 h -9.74461 c -1.25736,0 -2.40995,-0.96616 -2.40995,-2.48087 v -2.05568 c 0.20956,-1.29832 1.36214,-2.59665 2.82908,-2.59665 h 8.90636 c 1.57171,0 2.82907,1.19013 2.82907,2.70484 v 1.94749 c 0.10478,1.40652 -0.83824,2.48087 -2.40995,2.48087 z"
           id="path68-8-5"
           sodipodi:nodetypes="ssscssscs"
           style="fill:#070b0f;stroke-width:1.06473" />
        <path
           d="m 111.63758,116.05766 h -8.90001 c -1.83419,0.0289 -2.24737,-0.74562 -2.2,-3 -0.0474,-1.80175 0.3403,-2.60479 2.1,-2.6 l 9.33595,0.0254 c 2.15964,0.002 2.28949,0.69825 2.26405,2.57456 -0.0272,2.06139 -0.2,3 -2.6,3 z"
           fill="url(#SVGID_23_)"
           id="path69-8-4"
           sodipodi:nodetypes="sccsccss"
           style="fill:url(#linearGradient111)" />
        <path
           class="cls-9"
           d="m 101.48171,113.73298 v -1.2 c 0,-0.7 0.7,-1.3 1.5,-1.3 h 8.4 c 1.2,0 1.8,0.3 1.8,1.3 v 1.2 c 0,-1.2 -0.2,-2.2 -1.7,-2.2 h -8.5 c -0.9,0 -1.6,0.9 -1.5,2.2 z"
           id="path64-3-3"
           style="fill:#4d5256;fill-opacity:1" />
      </g>
    </g>
    <g
       id="g114"
       transform="translate(-0.23021646,-1.1368865)">
      <g
         id="g111-2"
         transform="translate(-57.146689,-0.57783434)">
        <path
           class="cls-10"
           d="m 112.06367,126.72543 h -9.7446 c -1.25737,0 -2.409955,-0.96616 -2.409955,-2.48087 v -2.05568 c 0.209565,-1.29832 1.362145,-2.59665 2.829075,-2.59665 h 8.90636 c 1.57171,0 2.82907,1.19013 2.82907,2.70484 v 1.94749 c 0.10478,1.40652 -0.83824,2.48087 -2.40995,2.48087 z"
           id="path68-2"
           sodipodi:nodetypes="ssscssscs"
           style="fill:#070b0f;stroke-width:1.06473" />
        <path
           d="m 111.5,125.5 h -8.9 c -1.8342,0.0289 -2.24737,-0.74562 -2.2,-3 -0.0474,-1.80175 0.3403,-2.60479 2.1,-2.6 l 9.33595,0.0254 c 2.15964,0.002 2.28949,0.69825 2.26405,2.57456 -0.0272,2.06139 -0.2,3 -2.6,3 z"
           fill="url(#SVGID_23_)"
           id="path69-6"
           sodipodi:nodetypes="sccsccss"
           style="fill:url(#linearGradient112-8)" />
        <path
           class="cls-9"
           d="m 101.34413,123.17532 v -1.2 c 0,-0.7 0.7,-1.3 1.5,-1.3 h 8.4 c 1.2,0 1.8,0.3 1.8,1.3 v 1.2 c 0,-1.2 -0.2,-2.2 -1.7,-2.2 h -8.5 c -0.9,0 -1.6,0.9 -1.5,2.2 z"
           id="path64-6"
           style="fill:#4d5256;fill-opacity:1" />
      </g>
      <g
         id="g110-7"
         transform="translate(-57.284267,-1.0275839)">
        <path
           class="cls-10"
           d="m 112.20125,117.28309 h -9.74461 c -1.25736,0 -2.40995,-0.96616 -2.40995,-2.48087 v -2.05568 c 0.20956,-1.29832 1.36214,-2.59665 2.82908,-2.59665 h 8.90636 c 1.57171,0 2.82907,1.19013 2.82907,2.70484 v 1.94749 c 0.10478,1.40652 -0.83824,2.48087 -2.40995,2.48087 z"
           id="path68-8-8"
           sodipodi:nodetypes="ssscssscs"
           style="fill:#070b0f;stroke-width:1.06473" />
        <path
           d="m 111.63758,116.05766 h -8.90001 c -1.83419,0.0289 -2.24737,-0.74562 -2.2,-3 -0.0474,-1.80175 0.3403,-2.60479 2.1,-2.6 l 9.33595,0.0254 c 2.15964,0.002 2.28949,0.69825 2.26405,2.57456 -0.0272,2.06139 -0.2,3 -2.6,3 z"
           fill="url(#SVGID_23_)"
           id="path69-8-41"
           sodipodi:nodetypes="sccsccss"
           style="fill:url(#linearGradient113)" />
        <path
           class="cls-9"
           d="m 101.48171,113.73298 v -1.2 c 0,-0.7 0.7,-1.3 1.5,-1.3 h 8.4 c 1.2,0 1.8,0.3 1.8,1.3 v 1.2 c 0,-1.2 -0.2,-2.2 -1.7,-2.2 h -8.5 c -0.9,0 -1.6,0.9 -1.5,2.2 z"
           id="path64-3-7"
           style="fill:#4d5256;fill-opacity:1" />
      </g>
      <g
         id="g110-3-1"
         transform="translate(-57.284268,-10.919674)">
        <path
           class="cls-10"
           d="m 112.20125,117.28309 h -9.74461 c -1.25736,0 -2.40995,-0.96616 -2.40995,-2.48087 v -2.05568 c 0.20956,-1.29832 1.36214,-2.59665 2.82908,-2.59665 h 8.90636 c 1.57171,0 2.82907,1.19013 2.82907,2.70484 v 1.94749 c 0.10478,1.40652 -0.83824,2.48087 -2.40995,2.48087 z"
           id="path68-8-5-8"
           sodipodi:nodetypes="ssscssscs"
           style="fill:#070b0f;stroke-width:1.06473" />
        <path
           d="m 111.63758,116.05766 h -8.90001 c -1.83419,0.0289 -2.24737,-0.74562 -2.2,-3 -0.0474,-1.80175 0.3403,-2.60479 2.1,-2.6 l 9.33595,0.0254 c 2.15964,0.002 2.28949,0.69825 2.26405,2.57456 -0.0272,2.06139 -0.2,3 -2.6,3 z"
           fill="url(#SVGID_23_)"
           id="path69-8-4-7"
           sodipodi:nodetypes="sccsccss"
           style="fill:url(#linearGradient114)" />
        <path
           class="cls-9"
           d="m 101.48171,113.73298 v -1.2 c 0,-0.7 0.7,-1.3 1.5,-1.3 h 8.4 c 1.2,0 1.8,0.3 1.8,1.3 v 1.2 c 0,-1.2 -0.2,-2.2 -1.7,-2.2 h -8.5 c -0.9,0 -1.6,0.9 -1.5,2.2 z"
           id="path64-3-3-8"
           style="fill:#4d5256;fill-opacity:1" />
      </g>
    </g>
    <circle
       class="cls-10"
       cx="78.300003"
       cy="112.13484"
       r="5.5"
       id="circle78" />
    <circle
       class="cls-24"
       cx="78.300003"
       cy="112.13484"
       r="4.5"
       id="circle79" />
    <path
       class="cls-9"
       d="m 73.9,112.43485 c -0.6,-2.1 1.2,-4.9 4.2,-5 2.8,0 4.8,2.4 4.4,5 0.4,-2.4 -1.2,-4.6 -4.2,-4.9 -2.9,0.2 -4.6,2.5 -4.4,4.9 z"
       id="path79" />
    <path
       d="m 40.8,71.134846 2.7,2.2 2.1,-2.7 -1.9,-2.2 -3,0.5 z"
       fill="url(#SVGID_27_)"
       id="path80"
       style="fill:url(#SVGID_27_)" />
    <path
       d="m 116.1,71.334846 -2.8,1.9 -1.9,-2.6 1.9,-2.2 2.8,0.5 z"
       fill="url(#SVGID_28_)"
       id="path82"
       style="fill:url(#SVGID_28_)" />
    <path
       d="m 43.6,46.834846 -2.4,2.1 2.6,2.7 2.2,-1.6 3.8,-0.1 h 59.7 l 2.9,0.1 2.7,-2.8 -2.2,-0.6 z"
       fill="url(#SVGID_29_)"
       id="path84"
       style="fill:url(#SVGID_29_)" />
    <path
       d="m 40.6,48.934846 3.2,2.7 2.2,-1.7 -2.4,-3.3 z"
       fill="url(#SVGID_30_)"
       id="path86"
       style="fill:url(#SVGID_30_)" />
    <path
       d="m 115.4,47.334846 -2.9,2.7 1.1,1.5 2.4,-2 z"
       fill="url(#SVGID_31_)"
       id="path88"
       style="fill:url(#SVGID_31_)" />
    <path
       class="cls-12"
       d="m 34.7,79.434846 v 0.6 h 86.7 v -1 z"
       id="path94" />
    <path
       d="m 47.868409,55.691433 v 10.365542 h 1.623519 v -3.496809 h 4.74567 v -1.623519 h -4.74567 v -3.621695 h 4.620784 v -1.623519 z"
       id="path95"
       style="stroke-width:1.24886" />
    <path
       d="m 54.074215,57.344055 v 3.496809 h 1.623518 v -3.496809 z"
       id="path96"
       style="stroke-width:1.24886" />
    <path
       d="m 59.23304,55.691433 v 1.623519 h 4.246125 v -1.623519 z"
       id="path97"
       style="stroke-width:1.24886" />
    <path
       d="m 57.484635,60.811761 v 1.748405 h 1.748405 v -1.748405 z"
       id="path98"
       style="stroke-width:1.24886" />
    <path
       d="m 59.23304,62.685052 v 1.623518 h 5.869644 v -7.118504 h -1.498633 v 2.123062 H 59.23304 v 1.498633 h 4.246125 l -0.124886,1.873291 z"
       id="path99"
       style="stroke-width:1.24886" />
    <path
       d="m 68.224835,55.691433 v 1.623519 h 4.495898 v 3.496809 h -4.12124 v 1.873291 h 4.12124 v 1.623518 h -5.869644 v 1.623519 h 5.869644 l 1.623518,-1.623519 v -8.617137 z"
       id="path100"
       style="stroke-width:1.24886" />
    <path
       d="m 66.851089,57.314952 h 1.623518 v 3.496809 h -1.623518 z"
       id="path101"
       style="stroke-width:1.24886" />
    <path
       d="m 77.466403,57.190066 h -1.623519 v 5.3701 l 1.623519,0.124886 z"
       id="path102"
       style="stroke-width:1.24886" />
    <path
       d="m 77.466403,55.691433 h 4.745669 v 1.623519 h -4.745669 z"
       id="path103"
       style="stroke-width:1.24886" />
    <path
       d="m 77.466403,62.685052 h 4.745669 v 1.623518 h -4.745669 z"
       id="path104"
       style="stroke-width:1.24886" />
    <path
       d="m 82.212072,57.190066 h 1.623519 v 3.621695 h -6.369188 v -1.498633 h 4.745669 z"
       id="path105"
       style="stroke-width:1.24886" />
    <path
       d="m 85.583996,55.691433 v 8.742023 H 87.3324 v -5.3701 h 1.498633 l 0.124886,-1.87329 -1.748405,0.124886 v -1.623519 z"
       id="path106"
       style="stroke-width:1.24886" />
    <path
       d="m 89.080805,55.566547 h 2.997265 v 1.623519 h -2.997265 z"
       id="path107"
       style="stroke-width:1.24886" />
    <path
       d="m 92.327842,57.190066 h 1.248861 v 1.998176 h -1.248861 z"
       id="path108"
       style="stroke-width:1.24886" />
  </g>
</svg>
